<svg version="1.1" id="Layer_1" xmlns="http://www.w3.org/2000/svg" xmlns:xlink="http://www.w3.org/1999/xlink" x="0px" y="0px"
	 width="100%" viewBox="0 0 372 161" enable-background="new 0 0 372 161" xml:space="preserve">
<path fill="#FFFFFF" opacity="1.000000" stroke="none" 
	d="
M254.000000,162.000000 
	C169.333359,162.000000 85.166710,162.000000 1.000045,162.000000 
	C1.000030,108.333366 1.000030,54.666733 1.000015,1.000074 
	C124.999939,1.000049 248.999878,1.000049 372.999878,1.000025 
	C372.999908,54.666592 372.999908,108.333183 372.999939,161.999878 
	C333.500000,162.000000 294.000000,162.000000 254.000000,162.000000 
M24.376539,67.230553 
	C24.320950,67.389397 24.265362,67.548233 23.663830,67.951195 
	C23.092419,68.934937 22.521006,69.918678 21.322012,71.235008 
	C20.866898,72.786552 20.411785,74.338097 19.350546,76.213783 
	C19.449427,77.020706 19.548306,77.827629 19.184235,78.804794 
	C19.184235,78.804794 19.197405,79.297882 19.042076,79.990952 
	C18.952927,89.647324 23.685677,97.020370 32.316105,100.751762 
	C33.506886,100.849472 34.697666,100.947182 36.306953,101.717682 
	C39.193775,102.185234 42.080597,102.652794 45.376278,103.774315 
	C48.582348,104.460518 51.788418,105.146713 55.811348,105.976562 
	C59.263042,107.318939 62.714737,108.661316 66.033623,110.716469 
	C66.411713,111.812660 66.789795,112.908859 67.035591,114.749306 
	C67.413490,116.168579 67.791382,117.587852 68.041458,119.671768 
	C68.086220,120.118668 68.130981,120.565559 68.120422,121.533936 
	C68.397713,121.731636 68.675003,121.929337 68.988838,122.861626 
	C69.309143,123.946724 69.629440,125.031830 69.992371,126.891647 
	C70.313629,128.297745 70.634888,129.703842 70.996902,131.835922 
	C71.306290,132.909760 71.615677,133.983597 71.994484,135.795395 
	C72.051094,136.531998 72.107704,137.268616 72.028198,138.667374 
	C72.409119,139.447083 72.790031,140.226807 73.147003,141.605423 
	C73.509941,142.073105 73.872871,142.540771 74.156471,143.509857 
	C74.431137,143.688156 74.705803,143.866440 75.206871,144.644241 
	C75.793602,145.459488 76.380341,146.274719 77.246727,147.729477 
	C88.063179,156.658325 98.586777,154.865356 106.639153,147.779358 
	C107.419220,146.784119 108.199295,145.788864 109.636139,144.714966 
	C110.102150,143.502975 110.568169,142.290985 111.636307,140.761932 
	C111.770920,139.875610 111.905540,138.989273 112.675491,137.736282 
	C112.799194,136.528687 112.922890,135.321091 113.699646,133.710754 
	C113.816948,132.179855 113.934250,130.648956 114.684761,128.746506 
	C114.807487,127.537773 114.930206,126.329041 115.707039,124.714439 
	C115.822029,123.183044 115.937012,121.651657 116.684700,119.746040 
	C116.806480,118.536629 116.928261,117.327209 117.691971,115.727753 
	C118.072586,113.820122 118.453201,111.912491 118.984459,109.345146 
	C119.047119,108.900055 119.109779,108.454964 119.949417,107.985893 
	C120.857872,107.665009 121.745163,107.252014 122.678085,107.037567 
	C131.475464,105.015427 140.280609,103.027153 149.830215,100.999344 
	C152.251923,99.682411 154.673630,98.365479 157.720627,96.788712 
	C158.660934,95.851791 159.673843,94.976570 160.530365,93.968468 
	C169.521210,83.386345 164.014420,65.715332 152.927963,62.462296 
	C152.622620,62.367828 152.317291,62.273365 151.510818,62.046703 
	C151.342758,62.086746 151.174698,62.126785 150.317657,61.841022 
	C148.881165,61.615795 147.444656,61.390572 145.324387,60.836311 
	C143.892838,60.526085 142.461304,60.215858 140.638657,59.243179 
	C139.104553,59.128761 137.570450,59.014343 135.665802,58.252911 
	C133.789017,57.812405 131.912247,57.371895 129.637039,56.288498 
	C128.126816,56.178326 126.616585,56.068153 124.702385,55.317921 
	C121.610802,55.152023 119.077957,54.144215 117.686951,50.177856 
	C117.138100,47.416748 116.589249,44.655643 115.998657,41.302666 
	C115.697868,40.856384 115.397079,40.410103 115.009544,39.184879 
	C114.618645,37.454292 114.227753,35.723701 113.962662,33.285244 
	C113.586044,32.187878 113.209419,31.090509 112.972481,29.281826 
	C112.593002,28.186047 112.213516,27.090267 111.975624,25.313919 
	C111.687958,24.531332 111.400291,23.748745 111.000298,22.229204 
	C108.461197,14.054494 102.181892,10.374063 94.373039,9.099282 
	C88.716530,8.175867 79.263245,10.118164 76.469223,16.047438 
	C76.296661,16.322765 76.124107,16.598093 75.299965,17.176378 
	C74.521858,19.105040 73.743759,21.033701 72.983315,22.934811 
	C72.983315,22.934811 72.952705,22.921366 72.333679,23.301844 
	C72.208961,24.499744 72.084236,25.697647 71.343956,27.288198 
	C71.216148,28.490870 71.088341,29.693542 70.321823,31.317629 
	C70.199409,32.841286 70.076996,34.364941 69.333794,36.274799 
	C69.206558,37.479034 69.079323,38.683270 68.310196,40.305248 
	C68.188957,41.830387 68.067711,43.355526 67.327171,45.267807 
	C67.203171,46.470364 67.079170,47.672920 66.484535,49.080521 
	C66.382004,49.379787 66.279472,49.679054 66.051750,50.645210 
	C66.092751,51.093761 66.133751,51.542309 66.023575,52.604240 
	C65.681198,53.350288 65.338814,54.096336 64.134750,54.978287 
	C56.404827,56.613853 48.674908,58.249420 40.125187,59.984955 
	C37.404621,60.620285 34.684052,61.255615 31.273752,62.014149 
	C29.505718,63.310337 27.737684,64.606522 25.435638,66.093880 
	C25.238260,66.408806 25.040880,66.723732 24.376539,67.230553 
M216.002075,62.897064 
	C218.965973,53.384048 223.867706,48.830387 231.749252,49.066311 
	C239.553238,49.299923 245.709274,51.873661 248.451263,62.802055 
	C255.221252,62.802055 262.002563,62.802055 270.496246,62.802055 
	C266.708099,55.474586 264.286530,48.262314 259.819794,42.689247 
	C251.151688,31.874182 238.467224,29.473558 225.573151,31.241400 
	C213.917145,32.839493 203.655579,38.436680 199.177689,50.195240 
	C196.749939,56.570293 195.514725,63.671036 195.196106,70.512177 
	C194.751297,80.062378 195.770828,89.673721 195.972595,99.262932 
	C196.207855,110.444397 201.429535,118.708153 210.322250,125.058075 
	C218.707977,131.045975 228.349136,132.010406 237.940979,130.816681 
	C249.746765,129.347458 259.360931,123.504829 264.856537,112.401733 
	C270.735413,100.524353 268.623840,87.788155 269.019440,75.289352 
	C256.046387,75.289352 243.645218,75.289352 231.304688,75.289352 
	C231.304688,80.984924 231.304688,86.386887 231.304688,92.191040 
	C237.361008,92.191040 243.119492,92.191040 248.816132,92.191040 
	C249.883057,102.661507 245.437607,110.137123 235.961868,112.582764 
	C229.261093,114.312180 219.416626,111.645248 217.123642,102.970787 
	C215.888290,98.297485 215.161819,93.359161 215.114349,88.531471 
	C215.033234,80.283844 215.666779,72.029198 216.002075,62.897064 
M350.570984,49.060059 
	C345.890503,40.808399 339.369202,34.858265 329.967529,32.438770 
	C306.001404,26.271141 282.425079,38.781136 282.019745,67.533394 
	C281.892944,76.529869 281.364655,85.589661 282.207153,94.508331 
	C282.846375,101.275276 284.051361,108.610275 287.320862,114.379959 
	C294.485901,127.024117 306.445221,131.582870 320.887817,131.100067 
	C339.046173,130.493088 353.151978,116.925720 354.670532,99.156479 
	C347.861267,99.156479 341.065369,99.156479 334.313477,99.156479 
	C331.584747,108.809952 327.070557,112.787270 319.185303,113.033966 
	C311.968353,113.259743 304.584473,110.171410 303.718384,100.896584 
	C302.489441,87.736420 302.597137,74.313301 303.662170,61.125988 
	C304.363525,52.442146 311.632996,48.902012 318.738892,49.021580 
	C326.562988,49.153229 331.331238,53.226978 334.505951,62.771614 
	C341.284576,62.771614 348.063202,62.771614 355.593811,62.771614 
	C353.949127,58.132164 352.458191,53.926414 350.570984,49.060059 
z"/>
<path fill="#002B49" opacity="1.000000" stroke="none" 
	d="
M216.001129,63.337280 
	C215.666779,72.029198 215.033234,80.283844 215.114349,88.531471 
	C215.161819,93.359161 215.888290,98.297485 217.123642,102.970787 
	C219.416626,111.645248 229.261093,114.312180 235.961868,112.582764 
	C245.437607,110.137123 249.883057,102.661507 248.816132,92.191040 
	C243.119492,92.191040 237.361008,92.191040 231.304688,92.191040 
	C231.304688,86.386887 231.304688,80.984924 231.304688,75.289352 
	C243.645218,75.289352 256.046387,75.289352 269.019440,75.289352 
	C268.623840,87.788155 270.735413,100.524353 264.856537,112.401733 
	C259.360931,123.504829 249.746765,129.347458 237.940979,130.816681 
	C228.349136,132.010406 218.707977,131.045975 210.322250,125.058075 
	C201.429535,118.708153 196.207855,110.444397 195.972595,99.262932 
	C195.770828,89.673721 194.751297,80.062378 195.196106,70.512177 
	C195.514725,63.671036 196.749939,56.570293 199.177689,50.195240 
	C203.655579,38.436680 213.917145,32.839493 225.573151,31.241400 
	C238.467224,29.473558 251.151688,31.874182 259.819794,42.689247 
	C264.286530,48.262314 266.708099,55.474586 270.496246,62.802055 
	C262.002563,62.802055 255.221252,62.802055 248.451263,62.802055 
	C245.709274,51.873661 239.553238,49.299923 231.749252,49.066311 
	C223.867706,48.830387 218.965973,53.384048 216.001129,63.337280 
z"/>
<path fill="#002B49" opacity="1.000000" stroke="none" 
	d="
M350.769135,49.390362 
	C352.458191,53.926414 353.949127,58.132164 355.593811,62.771614 
	C348.063202,62.771614 341.284576,62.771614 334.504974,62.778942 
	C331.331238,53.226978 326.562988,49.153229 318.738892,49.021580 
	C311.632996,48.902012 304.363525,52.442146 303.662170,61.125988 
	C302.597137,74.313301 302.489441,87.736420 303.718384,100.896584 
	C304.584473,110.171410 311.968353,113.259743 319.185303,113.033966 
	C327.070557,112.787270 331.584747,108.809952 334.313477,99.156479 
	C341.065369,99.156479 347.861267,99.156479 354.670532,99.156479 
	C353.151978,116.925720 339.046173,130.493088 320.887817,131.100067 
	C306.445221,131.582870 294.485901,127.024117 287.320862,114.379959 
	C284.051361,108.610275 282.846375,101.275276 282.207153,94.508331 
	C281.364655,85.589661 281.892944,76.529869 282.019745,67.533394 
	C282.425079,38.781136 306.001404,26.271141 329.967529,32.438770 
	C339.369202,34.858265 345.890503,40.808399 350.769135,49.390362 
z"/>
<path fill="#F16636" opacity="1.000000" stroke="none" 
	d="
M118.034271,50.892555 
	C119.077957,54.144215 121.610802,55.152023 124.548912,55.656517 
	C119.610283,57.341171 123.888008,59.336018 124.380241,60.416092 
	C127.589981,67.458977 131.619400,74.155457 134.468430,81.327629 
	C137.099960,87.952225 135.098846,91.771271 128.389893,94.714005 
	C125.568573,95.951530 122.350044,96.283516 119.206589,96.693443 
	C118.982323,95.910072 118.863564,95.460403 118.784271,94.767670 
	C118.823746,94.524612 118.854553,94.033081 119.264923,94.025063 
	C125.888458,94.129196 131.685593,88.990150 129.756668,82.624756 
	C124.854805,66.448624 114.741249,54.932575 99.372665,47.958645 
	C91.319061,44.304089 82.828606,43.540417 74.144241,44.007481 
	C71.150406,44.168499 68.732132,43.721222 68.952087,39.887505 
	C69.079323,38.683270 69.206558,37.479034 69.673752,36.504135 
	C71.371399,37.488823 72.674484,38.752060 74.096954,38.905022 
	C78.497742,39.378231 82.963707,39.234566 87.368668,39.681919 
	C97.830338,40.744366 106.777405,45.452648 115.158417,51.512608 
	C115.689781,51.896824 117.056290,51.126030 118.034271,50.892555 
z"/>
<path fill="#82BE3C" opacity="1.000000" stroke="none" 
	d="
M119.172440,108.009872 
	C119.109779,108.454964 119.047119,108.900055 118.475769,109.673340 
	C108.121338,110.334442 98.198456,111.599815 88.446991,110.793137 
	C71.615952,109.400810 57.231182,102.387497 47.155445,88.220787 
	C42.751812,82.029175 44.022755,78.773003 51.102531,76.036659 
	C52.283447,75.580231 53.058865,74.074638 54.446709,73.041504 
	C56.576191,73.033485 58.280621,73.037819 60.055206,73.391769 
	C61.749779,74.491966 63.374191,75.242546 64.765244,76.272781 
	C63.289253,76.999268 62.000420,77.348656 60.812939,77.911781 
	C57.632133,79.420174 54.494759,81.020142 51.340130,82.583740 
	C53.381134,85.700165 54.898544,89.383835 57.553814,91.834785 
	C69.019524,102.418190 83.035553,106.975342 98.383636,106.840843 
	C105.225319,106.780884 112.051933,104.999535 118.970146,104.394798 
	C119.094086,105.863388 119.133263,106.936630 119.172440,108.009872 
z"/>
<path fill="#78B83C" opacity="1.000000" stroke="none" 
	d="
M54.021660,73.053848 
	C53.058865,74.074638 52.283447,75.580231 51.102531,76.036659 
	C44.022755,78.773003 42.751812,82.029175 47.155445,88.220787 
	C57.231182,102.387497 71.615952,109.400810 88.446991,110.793137 
	C98.198456,111.599815 108.121338,110.334442 118.400452,110.003204 
	C118.453201,111.912491 118.072586,113.820122 117.284073,115.529587 
	C114.602470,115.046600 112.331795,114.547615 110.054543,114.515541 
	C101.982986,114.401909 93.856331,115.010361 85.852623,114.258583 
	C79.215897,113.635193 72.723030,111.480171 66.166435,110.003693 
	C62.714737,108.661316 59.263042,107.318939 55.398865,105.547043 
	C54.253456,103.898598 53.681061,102.539436 52.759941,101.484886 
	C48.672466,96.805336 44.096638,92.498123 40.438293,87.512596 
	C36.443825,82.069000 39.013332,76.705475 45.670868,74.986893 
	C46.874069,74.676292 47.903008,73.690598 49.429413,73.014587 
	C51.238171,73.026344 52.629913,73.040100 54.021660,73.053848 
z"/>
<path fill="#F47838" opacity="1.000000" stroke="none" 
	d="
M68.631149,40.096375 
	C68.732132,43.721222 71.150406,44.168499 74.144241,44.007481 
	C82.828606,43.540417 91.319061,44.304089 99.372665,47.958645 
	C114.741249,54.932575 124.854805,66.448624 129.756668,82.624756 
	C131.685593,88.990150 125.888458,94.129196 119.038116,93.846420 
	C118.228409,93.126984 118.055878,92.578171 118.261795,92.017937 
	C126.028839,89.467102 126.971985,87.882721 124.451057,80.961357 
	C119.093597,66.252121 109.180389,56.173637 94.266220,50.837273 
	C87.035393,48.250042 79.745537,47.756981 72.259209,48.002964 
	C70.001060,48.077160 67.735779,48.199253 67.946472,44.880665 
	C68.067711,43.355526 68.188957,41.830387 68.631149,40.096375 
z"/>
<path fill="#F68739" opacity="1.000000" stroke="none" 
	d="
M67.636826,45.074234 
	C67.735779,48.199253 70.001060,48.077160 72.259209,48.002964 
	C79.745537,47.756981 87.035393,48.250042 94.266220,50.837273 
	C109.180389,56.173637 119.093597,66.252121 124.451057,80.961357 
	C126.971985,87.882721 126.028839,89.467102 118.019135,91.842499 
	C117.189224,91.118378 116.980423,90.558289 117.167236,89.995438 
	C121.734688,89.361259 122.539383,87.140671 121.250114,83.267555 
	C115.896118,67.183510 104.898888,56.917637 88.614792,53.180019 
	C81.422691,51.529247 73.671898,52.312572 66.174744,51.990860 
	C66.133751,51.542309 66.092751,51.093761 66.306458,50.177704 
	C66.789375,49.477699 66.920715,49.199459 66.955170,48.875477 
	C67.079170,47.672920 67.203171,46.470364 67.636826,45.074234 
z"/>
<path fill="#E8232F" opacity="1.000000" stroke="none" 
	d="
M119.560928,107.997879 
	C119.133263,106.936630 119.094086,105.863388 119.034752,104.147369 
	C119.059647,103.340187 119.104691,103.175774 119.456299,103.004410 
	C120.171692,102.993774 120.580521,102.990105 121.436966,102.991913 
	C125.661980,102.591705 129.573059,102.675064 133.190994,101.686020 
	C142.926483,99.024605 152.028305,92.869720 147.350586,78.646759 
	C145.290924,72.384171 143.139511,66.151749 141.029755,59.905632 
	C142.461304,60.215858 143.892838,60.526085 145.712296,61.361740 
	C146.802551,63.745064 147.556229,65.585403 148.198715,67.463768 
	C151.787720,77.956551 156.099762,88.458923 147.850647,98.865112 
	C147.658081,99.108025 148.646149,100.286835 149.083527,101.029114 
	C140.280609,103.027153 131.475464,105.015427 122.678085,107.037567 
	C121.745163,107.252014 120.857872,107.665009 119.560928,107.997879 
z"/>
<path fill="#EF5234" opacity="1.000000" stroke="none" 
	d="
M119.312088,97.027145 
	C122.350044,96.283516 125.568573,95.951530 128.389893,94.714005 
	C135.098846,91.771271 137.099960,87.952225 134.468430,81.327629 
	C131.619400,74.155457 127.589981,67.458977 124.380241,60.416092 
	C123.888008,59.336018 119.610283,57.341171 124.750900,55.976547 
	C126.616585,56.068153 128.126816,56.178326 129.829361,56.986366 
	C130.434082,58.730465 130.839493,59.779522 131.260010,60.822483 
	C134.207932,68.133682 137.196854,75.428642 140.095947,82.759125 
	C142.102707,87.833229 139.904434,91.866196 135.655441,93.983322 
	C130.446304,96.578857 124.678047,98.052238 119.094543,99.637436 
	C119.129082,98.518463 119.220581,97.772804 119.312088,97.027145 
z"/>
<path fill="#E4022B" opacity="1.000000" stroke="none" 
	d="
M76.949600,15.894529 
	C79.263245,10.118164 88.716530,8.175867 94.373039,9.099282 
	C102.181892,10.374063 108.461197,14.054494 110.671478,22.570175 
	C102.675659,21.266026 95.011665,19.606667 87.340286,17.982233 
	C83.884323,17.250423 80.413620,16.588282 76.949600,15.894529 
z"/>
<path fill="#E4022B" opacity="1.000000" stroke="none" 
	d="
M151.006653,62.166824 
	C151.174698,62.126785 151.342758,62.086746 151.894775,62.305676 
	C152.508057,62.798569 152.785904,62.929955 153.112228,62.958805 
	C164.014420,65.715332 169.521210,83.386345 160.530365,93.968468 
	C159.673843,94.976570 158.660934,95.851791 157.105637,96.655952 
	C156.433395,91.858116 156.985123,87.084404 156.176895,82.553284 
	C154.948975,75.669411 152.777390,68.953873 151.006653,62.166824 
z"/>
<path fill="#61AC3D" opacity="1.000000" stroke="none" 
	d="
M54.446712,73.041504 
	C52.629913,73.040100 51.238171,73.026344 49.014236,73.009674 
	C47.525162,73.045448 46.846893,72.991119 46.214523,73.136459 
	C30.823263,76.673828 28.926655,83.153397 39.579926,95.163704 
	C41.687325,97.539558 43.187317,100.454185 44.967419,103.120346 
	C42.080597,102.652794 39.193775,102.185234 36.423882,101.331421 
	C39.019203,97.675240 35.118973,96.514740 34.054348,94.921913 
	C29.647715,88.328987 24.970203,82.133469 31.943153,74.486519 
	C32.032490,74.388550 31.987429,74.168015 32.299419,73.878906 
	C33.395943,73.503494 34.198151,73.253883 35.146187,73.229965 
	C35.861603,73.301895 36.431194,73.148117 37.321098,72.953842 
	C38.094650,72.276878 38.547882,71.640404 39.400818,71.002716 
	C40.866409,70.997231 41.932293,70.992966 43.167446,71.219818 
	C43.892593,70.969803 44.448471,70.488678 45.469536,70.005066 
	C52.943882,69.998459 59.953033,69.994339 67.105423,70.238846 
	C67.532288,70.982834 67.815933,71.478195 67.725067,72.129562 
	C64.895378,72.537750 62.440212,72.789940 59.985046,73.042145 
	C58.280621,73.037819 56.576191,73.033485 54.446712,73.041504 
z"/>
<path fill="#EC4032" opacity="1.000000" stroke="none" 
	d="
M119.151520,100.010757 
	C124.678047,98.052238 130.446304,96.578857 135.655441,93.983322 
	C139.904434,91.866196 142.102707,87.833229 140.095947,82.759125 
	C137.196854,75.428642 134.207932,68.133682 131.260010,60.822483 
	C130.839493,59.779522 130.434082,58.730465 130.028564,57.307812 
	C131.912247,57.371895 133.789017,57.812405 135.873016,58.944344 
	C138.499802,65.634750 141.260147,71.524368 143.231415,77.667206 
	C144.816345,82.606163 146.587173,87.745262 142.256699,92.689270 
	C137.689117,97.903984 131.919128,100.046867 125.379105,101.062210 
	C123.853058,101.299133 122.449348,102.324066 120.989357,102.986435 
	C120.580521,102.990105 120.171692,102.993774 119.393341,102.632278 
	C119.066383,101.514992 119.108948,100.762878 119.151520,100.010757 
z"/>
<path fill="#EF5634" opacity="1.000000" stroke="none" 
	d="
M117.860611,50.535210 
	C117.056290,51.126030 115.689781,51.896824 115.158417,51.512608 
	C106.777405,45.452648 97.830338,40.744366 87.368668,39.681919 
	C82.963707,39.234566 78.497742,39.378231 74.096954,38.905022 
	C72.674484,38.752060 71.371399,37.488823 69.984138,36.311031 
	C70.076996,34.364941 70.199409,32.841286 70.658447,31.535931 
	C70.700050,35.488777 73.349129,35.065979 75.653221,34.987419 
	C84.663292,34.680202 93.502205,35.646732 101.861732,39.147881 
	C106.385780,41.042648 110.673027,43.502827 115.512543,45.931484 
	C115.718307,44.357849 115.879349,43.126194 116.040398,41.894535 
	C116.589249,44.655643 117.138100,47.416748 117.860611,50.535210 
z"/>
<path fill="#F7923B" opacity="1.000000" stroke="none" 
	d="
M66.099159,52.297550 
	C73.671898,52.312572 81.422691,51.529247 88.614792,53.180019 
	C104.898888,56.917637 115.896118,67.183510 121.250114,83.267555 
	C122.539383,87.140671 121.734688,89.361259 117.096832,89.826965 
	C116.630806,89.661247 116.566452,89.299843 116.933083,89.095795 
	C117.818787,87.269127 119.279442,85.094048 118.704147,84.113556 
	C114.965271,77.741310 111.806885,70.519272 106.536652,65.659592 
	C95.182083,55.189560 81.154968,51.934105 65.633560,55.024288 
	C65.412521,54.999657 64.996429,54.842384 64.996429,54.842384 
	C65.338814,54.096336 65.681198,53.350288 66.099159,52.297550 
z"/>
<path fill="#4BA13D" opacity="1.000000" stroke="none" 
	d="
M70.956146,131.109940 
	C70.634888,129.703842 70.313629,128.297745 69.995453,126.105782 
	C71.314682,124.705734 72.678650,123.478340 73.939240,123.576653 
	C82.264122,124.225883 90.556961,125.283173 98.880981,125.947632 
	C102.819786,126.262054 106.827126,125.767082 110.754486,126.145981 
	C111.938072,126.260170 112.957123,128.079712 114.051559,129.118057 
	C113.934250,130.648956 113.816948,132.179855 113.355911,133.486084 
	C111.968651,132.176682 110.959633,130.214478 109.875137,130.171844 
	C106.631302,130.044296 103.322411,131.144150 100.103111,130.904053 
	C92.269768,130.319855 84.474480,129.233047 76.659866,128.385559 
	C74.232979,128.122360 71.087440,126.505020 70.956146,131.109940 
z"/>
<path fill="#EB3130" opacity="1.000000" stroke="none" 
	d="
M121.436966,102.991913 
	C122.449348,102.324066 123.853058,101.299133 125.379105,101.062210 
	C131.919128,100.046867 137.689117,97.903984 142.256699,92.689270 
	C146.587173,87.745262 144.816345,82.606163 143.231415,77.667206 
	C141.260147,71.524368 138.499802,65.634750 136.058289,59.267853 
	C137.570450,59.014343 139.104553,59.128761 140.834198,59.574406 
	C143.139511,66.151749 145.290924,72.384171 147.350586,78.646759 
	C152.028305,92.869720 142.926483,99.024605 133.190994,101.686020 
	C129.573059,102.675064 125.661980,102.591705 121.436966,102.991913 
z"/>
<path fill="#6CB23D" opacity="1.000000" stroke="none" 
	d="
M45.171848,103.447327 
	C43.187317,100.454185 41.687325,97.539558 39.579926,95.163704 
	C28.926655,83.153397 30.823263,76.673828 46.214523,73.136459 
	C46.846893,72.991119 47.525162,73.045448 48.597221,73.011673 
	C47.903008,73.690598 46.874069,74.676292 45.670868,74.986893 
	C39.013332,76.705475 36.443825,82.069000 40.438293,87.512596 
	C44.096638,92.498123 48.672466,96.805336 52.759941,101.484886 
	C53.681061,102.539436 54.253456,103.898598 54.990437,105.475220 
	C51.788418,105.146713 48.582348,104.460518 45.171848,103.447327 
z"/>
<path fill="#5AA93D" opacity="1.000000" stroke="none" 
	d="
M114.368156,128.932281 
	C112.957123,128.079712 111.938072,126.260170 110.754486,126.145981 
	C106.827126,125.767082 102.819786,126.262054 98.880981,125.947632 
	C90.556961,125.283173 82.264122,124.225883 73.939240,123.576653 
	C72.678650,123.478340 71.314682,124.705734 69.974136,125.718422 
	C69.629440,125.031830 69.309143,123.946724 68.909744,122.266563 
	C68.688248,121.376411 68.469940,121.156731 68.175743,121.012459 
	C68.130981,120.565559 68.086220,120.118668 68.457474,119.291962 
	C70.612946,118.994850 72.437477,118.764427 74.078293,119.210220 
	C86.216057,122.507881 98.552803,122.758759 110.916512,121.397377 
	C114.436630,121.009781 114.967941,122.443718 115.052933,125.120308 
	C114.930206,126.329041 114.807487,127.537773 114.368156,128.932281 
z"/>
<path fill="#ED4633" opacity="1.000000" stroke="none" 
	d="
M116.019531,41.598602 
	C115.879349,43.126194 115.718307,44.357849 115.512543,45.931484 
	C110.673027,43.502827 106.385780,41.042648 101.861732,39.147881 
	C93.502205,35.646732 84.663292,34.680202 75.653221,34.987419 
	C73.349129,35.065979 70.700050,35.488777 70.977798,31.325222 
	C71.088341,29.693542 71.216148,28.490870 71.675232,27.504360 
	C73.498474,28.812965 75.009605,30.874418 76.479416,30.845371 
	C88.834930,30.601210 100.441948,33.108875 111.300995,39.079552 
	C112.396866,39.682098 113.823273,39.683468 115.096291,39.963821 
	C115.397079,40.410103 115.697868,40.856384 116.019531,41.598602 
z"/>
<path fill="#EB3631" opacity="1.000000" stroke="none" 
	d="
M115.052917,39.574352 
	C113.823273,39.683468 112.396866,39.682098 111.300995,39.079552 
	C100.441948,33.108875 88.834930,30.601210 76.479416,30.845371 
	C75.009605,30.874418 73.498474,28.812965 71.983002,27.308037 
	C72.084236,25.697647 72.208961,24.499744 72.670151,23.522602 
	C73.206787,27.533295 76.040802,27.089069 78.453865,26.971052 
	C89.350014,26.438141 99.692551,28.483992 109.544945,33.190090 
	C110.813911,33.796227 112.398483,33.741634 113.836861,33.993114 
	C114.227753,35.723701 114.618645,37.454292 115.052917,39.574352 
z"/>
<path fill="#6FB43D" opacity="1.000000" stroke="none" 
	d="
M66.100029,110.360077 
	C72.723030,111.480171 79.215897,113.635193 85.852623,114.258583 
	C93.856331,115.010361 101.982986,114.401909 110.054543,114.515541 
	C112.331795,114.547615 114.602470,115.046600 116.963104,115.724609 
	C116.928261,117.327209 116.806480,118.536629 116.317810,119.563515 
	C114.685661,118.851631 113.424072,117.876396 112.154549,117.865952 
	C104.439552,117.802406 96.676857,118.514252 89.019730,117.881851 
	C81.679123,117.275597 74.447441,115.350525 67.167885,114.005051 
	C66.789795,112.908859 66.411713,111.812660 66.100029,110.360077 
z"/>
<path fill="#E6122D" opacity="1.000000" stroke="none" 
	d="
M150.662155,62.003922 
	C152.777390,68.953873 154.948975,75.669411 156.176895,82.553284 
	C156.985123,87.084404 156.433395,91.858116 156.792999,96.785873 
	C154.673630,98.365479 152.251923,99.682411 149.456879,101.014229 
	C148.646149,100.286835 147.658081,99.108025 147.850647,98.865112 
	C156.099762,88.458923 151.787720,77.956551 148.198715,67.463768 
	C147.556229,65.585403 146.802551,63.745064 146.054184,61.526260 
	C147.444656,61.390572 148.881165,61.615795 150.662155,62.003922 
z"/>
<path fill="#65AF3D" opacity="1.000000" stroke="none" 
	d="
M67.101738,114.377182 
	C74.447441,115.350525 81.679123,117.275597 89.019730,117.881851 
	C96.676857,118.514252 104.439552,117.802406 112.154549,117.865952 
	C113.424072,117.876396 114.685661,118.851631 116.001457,119.750626 
	C115.937012,121.651657 115.822029,123.183044 115.379990,124.917374 
	C114.967941,122.443718 114.436630,121.009781 110.916512,121.397377 
	C98.552803,122.758759 86.216057,122.507881 74.078293,119.210220 
	C72.437477,118.764427 70.612946,118.994850 68.521378,118.959641 
	C67.791382,117.587852 67.413490,116.168579 67.101738,114.377182 
z"/>
<path fill="#067D3E" opacity="1.000000" stroke="none" 
	d="
M105.981827,147.806305 
	C98.586777,154.865356 88.063179,156.658325 77.197037,147.011993 
	C78.629951,145.863037 80.122871,145.030167 81.593437,145.067932 
	C88.885391,145.255127 96.175072,145.615631 103.454857,146.082031 
	C104.330414,146.138123 105.141083,147.206894 105.981827,147.806305 
z"/>
<path fill="#E9252F" opacity="1.000000" stroke="none" 
	d="
M113.899765,33.639179 
	C112.398483,33.741634 110.813911,33.796227 109.544945,33.190090 
	C99.692551,28.483992 89.350014,26.438141 78.453865,26.971052 
	C76.040802,27.089069 73.206787,27.533295 72.979668,23.332363 
	C72.952705,22.921366 72.983315,22.934811 73.444122,22.960678 
	C87.471519,22.040636 100.384438,24.726377 112.832802,29.993141 
	C113.209419,31.090509 113.586044,32.187878 113.899765,33.639179 
z"/>
<path fill="#3D9A3D" opacity="1.000000" stroke="none" 
	d="
M70.976524,131.472931 
	C71.087440,126.505020 74.232979,128.122360 76.659866,128.385559 
	C84.474480,129.233047 92.269768,130.319855 100.103111,130.904053 
	C103.322411,131.144150 106.631302,130.044296 109.875137,130.171844 
	C110.959633,130.214478 111.968651,132.176682 113.029381,133.687454 
	C112.922890,135.321091 112.799194,136.528687 112.334503,137.648819 
	C111.985619,137.380341 111.977730,137.199341 111.964035,136.600815 
	C110.583420,135.455780 109.248405,134.191544 107.827461,134.086151 
	C97.025681,133.285065 86.210396,132.627457 75.388481,132.198639 
	C74.346275,132.157333 73.230377,133.975739 72.100296,134.975769 
	C72.051903,135.020676 71.925064,135.057434 71.925064,135.057434 
	C71.615677,133.983597 71.306290,132.909760 70.976524,131.472931 
z"/>
<path fill="#459E3D" opacity="1.000000" stroke="none" 
	d="
M66.962189,69.990219 
	C59.953033,69.994339 52.943882,69.998459 45.171310,70.021317 
	C43.937984,70.356255 43.468082,70.672470 42.998180,70.988693 
	C41.932293,70.992966 40.866409,70.997231 39.231575,70.772949 
	C38.107025,71.023560 37.551422,71.502724 36.663372,71.986351 
	C35.887585,71.991737 35.444252,71.992668 34.788250,71.743156 
	C31.221861,72.990585 27.825365,74.401405 24.531052,76.020172 
	C22.666508,76.936378 20.969742,78.194023 19.197405,79.297882 
	C19.197405,79.297882 19.184235,78.804794 19.527878,78.269501 
	C19.899904,77.119354 19.928288,76.504501 19.956671,75.889641 
	C20.411785,74.338097 20.866898,72.786552 21.866188,71.357971 
	C25.682407,70.690735 28.918468,69.462349 32.233047,69.190186 
	C43.415134,68.271988 54.625114,67.693451 65.945129,67.233383 
	C66.339409,67.716644 66.612999,67.951553 66.918480,68.487289 
	C66.954315,69.188820 66.958252,69.589516 66.962189,69.990219 
z"/>
<path fill="#50A43D" opacity="1.000000" stroke="none" 
	d="
M19.119740,79.644417 
	C20.969742,78.194023 22.666508,76.936378 24.531052,76.020172 
	C27.825365,74.401405 31.221861,72.990585 34.787952,71.995865 
	C35.000332,72.667427 35.000347,72.835854 35.000359,73.004272 
	C34.198151,73.253883 33.395943,73.503494 31.938868,73.913025 
	C24.352953,77.235825 22.931190,82.794121 27.003672,90.073914 
	C28.825136,93.329880 30.321228,96.767876 31.964981,100.123260 
	C23.685677,97.020370 18.952927,89.647324 19.119740,79.644417 
z"/>
<path fill="#E7182E" opacity="1.000000" stroke="none" 
	d="
M112.902641,29.637482 
	C100.384438,24.726377 87.471519,22.040636 73.435303,22.974453 
	C73.743759,21.033701 74.521858,19.105040 75.685699,17.425179 
	C77.356369,18.448065 78.660812,19.921860 79.923187,19.886662 
	C91.034042,19.576857 101.476349,22.514931 111.834038,25.994488 
	C112.213516,27.090267 112.593002,28.186047 112.902641,29.637482 
z"/>
<path fill="#1E893E" opacity="1.000000" stroke="none" 
	d="
M111.034195,141.078995 
	C110.568169,142.290985 110.102150,143.502975 109.201126,144.374359 
	C107.903564,143.690491 107.057320,143.099533 106.176018,143.041595 
	C95.177277,142.318298 84.173462,141.672333 73.170944,141.006500 
	C72.790031,140.226807 72.409119,139.447083 72.534317,138.334396 
	C84.997849,138.675110 96.956261,139.332565 108.910240,140.062469 
	C109.636208,140.106812 110.327026,140.726837 111.034195,141.078995 
z"/>
<path fill="#288F3E" opacity="1.000000" stroke="none" 
	d="
M111.335251,140.920471 
	C110.327026,140.726837 109.636208,140.106812 108.910240,140.062469 
	C96.956261,139.332565 84.997849,138.675110 72.602379,138.003326 
	C72.107704,137.268616 72.051094,136.531998 71.959778,135.426422 
	C71.925064,135.057434 72.051903,135.020676 72.516449,134.999481 
	C85.977272,135.658295 98.973557,136.338318 111.969833,137.018341 
	C111.977730,137.199341 111.985619,137.380341 112.016838,137.832153 
	C111.905540,138.989273 111.770920,139.875610 111.335251,140.920471 
z"/>
<path fill="#13833E" opacity="1.000000" stroke="none" 
	d="
M73.158974,141.305969 
	C84.173462,141.672333 95.177277,142.318298 106.176018,143.041595 
	C107.057320,143.099533 107.903564,143.690491 108.872734,144.413666 
	C108.199295,145.788864 107.419220,146.784119 106.310486,147.792831 
	C105.141083,147.206894 104.330414,146.138123 103.454857,146.082031 
	C96.175072,145.615631 88.885391,145.255127 81.593437,145.067932 
	C80.122871,145.030167 78.629951,145.863037 77.057205,146.692230 
	C76.380341,146.274719 75.793602,145.459488 75.032913,144.131699 
	C74.721794,143.343597 74.514076,143.140030 74.235809,143.008453 
	C73.872871,142.540771 73.509941,142.073105 73.158974,141.305969 
z"/>
<path fill="#067D3E" opacity="1.000000" stroke="none" 
	d="
M64.565590,54.910336 
	C64.996429,54.842384 65.412521,54.999657 65.610390,55.297058 
	C65.595985,56.063641 65.383713,56.532822 65.104439,57.374161 
	C65.081345,58.498383 65.125259,59.250458 65.099358,60.331604 
	C64.967262,61.103851 64.904976,61.547024 64.487350,61.994587 
	C63.417107,62.003712 62.702213,62.008450 61.550781,62.015129 
	C59.076790,62.017296 57.039330,62.017521 54.713081,61.718269 
	C49.931187,60.907524 45.438084,60.396252 40.944984,59.884987 
	C48.674908,58.249420 56.404827,56.613853 64.565590,54.910336 
z"/>
<path fill="#34953D" opacity="1.000000" stroke="none" 
	d="
M65.824425,66.985023 
	C54.625114,67.693451 43.415134,68.271988 32.233047,69.190186 
	C28.918468,69.462349 25.682407,70.690735 22.179979,71.191681 
	C22.521006,69.918678 23.092419,68.934937 24.405338,67.918915 
	C36.382122,66.924667 47.619141,65.982018 58.849865,64.969551 
	C59.920174,64.873055 60.951153,64.340256 62.358955,64.007187 
	C63.430710,63.994198 64.143898,63.984032 64.990852,64.274208 
	C65.357887,65.378044 65.591156,66.181534 65.824425,66.985023 
z"/>
<path fill="#57A73D" opacity="1.000000" stroke="none" 
	d="
M32.140541,100.437515 
	C30.321228,96.767876 28.825136,93.329880 27.003672,90.073914 
	C22.931190,82.794121 24.352953,77.235825 31.644548,74.038818 
	C31.987429,74.168015 32.032490,74.388550 31.943153,74.486519 
	C24.970203,82.133469 29.647715,88.328987 34.054348,94.921913 
	C35.118973,96.514740 39.019203,97.675240 36.214630,100.995026 
	C34.697666,100.947182 33.506886,100.849472 32.140541,100.437515 
z"/>
<path fill="#248D3E" opacity="1.000000" stroke="none" 
	d="
M62.000389,64.010010 
	C60.951153,64.340256 59.920174,64.873055 58.849865,64.969551 
	C47.619141,65.982018 36.382122,66.924667 24.678310,67.796844 
	C24.265362,67.548233 24.320950,67.389397 24.866104,67.019936 
	C25.560331,66.507118 25.764992,66.204910 25.969650,65.902710 
	C27.737684,64.606522 29.505718,63.310337 31.698067,62.338165 
	C33.253437,63.080959 34.396751,63.885979 35.513401,63.850548 
	C39.957748,63.709541 44.398750,63.363205 48.830708,62.975422 
	C50.899853,62.794373 52.945549,62.345322 55.001873,62.017746 
	C57.039330,62.017521 59.076790,62.017296 61.554741,62.347336 
	C61.996948,63.121738 61.998669,63.565872 62.000389,64.010010 
z"/>
<path fill="#E60D2C" opacity="1.000000" stroke="none" 
	d="
M111.904831,25.654203 
	C101.476349,22.514931 91.034042,19.576857 79.923187,19.886662 
	C78.660812,19.921860 77.356369,18.448065 76.011490,17.273697 
	C76.124107,16.598093 76.296661,16.322765 76.709412,15.970984 
	C80.413620,16.588282 83.884323,17.250423 87.340286,17.982233 
	C95.011665,19.606667 102.675659,21.266026 110.727646,22.938652 
	C111.400291,23.748745 111.687958,24.531332 111.904831,25.654203 
z"/>
<path fill="#13833E" opacity="1.000000" stroke="none" 
	d="
M54.713081,61.718269 
	C52.945549,62.345322 50.899853,62.794373 48.830708,62.975422 
	C44.398750,63.363205 39.957748,63.709541 35.513401,63.850548 
	C34.396751,63.885979 33.253437,63.080959 32.042931,62.276566 
	C34.684052,61.255615 37.404621,60.620285 40.535088,59.934967 
	C45.438084,60.396252 49.931187,60.907524 54.713081,61.718269 
z"/>
<path fill="#50A43D" opacity="1.000000" stroke="none" 
	d="
M19.653608,76.051712 
	C19.928288,76.504501 19.899904,77.119354 19.759354,78.184387 
	C19.548306,77.827629 19.449427,77.020706 19.653608,76.051712 
z"/>
<path fill="#F7923B" opacity="1.000000" stroke="none" 
	d="
M66.719849,48.977997 
	C66.920715,49.199459 66.789375,49.477699 66.369049,49.844257 
	C66.279472,49.679054 66.382004,49.379787 66.719849,48.977997 
z"/>
<path fill="#65AF3D" opacity="1.000000" stroke="none" 
	d="
M68.148087,121.273193 
	C68.469940,121.156731 68.688248,121.376411 68.891472,121.899269 
	C68.675003,121.929337 68.397713,121.731636 68.148087,121.273193 
z"/>
<path fill="#E6122D" opacity="1.000000" stroke="none" 
	d="
M153.020096,62.710548 
	C152.785904,62.929955 152.508057,62.798569 152.145325,62.371773 
	C152.317291,62.273365 152.622620,62.367828 153.020096,62.710548 
z"/>
<path fill="#34953D" opacity="1.000000" stroke="none" 
	d="
M25.702644,65.998291 
	C25.764992,66.204910 25.560331,66.507118 25.099586,66.923988 
	C25.040880,66.723732 25.238260,66.408806 25.702644,65.998291 
z"/>
<path fill="#1E893E" opacity="1.000000" stroke="none" 
	d="
M74.196136,143.259155 
	C74.514076,143.140030 74.721794,143.343597 74.919708,143.831940 
	C74.705803,143.866440 74.431137,143.688156 74.196136,143.259155 
z"/>
<path fill="#96C83C" opacity="1.000000" stroke="none" 
	d="
M116.566452,89.299843 
	C116.566452,89.299843 116.630806,89.661247 116.701210,89.829720 
	C116.980423,90.558289 117.189224,91.118378 117.640694,91.853912 
	C118.055878,92.578171 118.228409,93.126984 118.627747,93.854446 
	C118.854553,94.033081 118.823746,94.524612 118.413948,94.774292 
	C116.573608,95.419037 115.122673,95.752556 113.715637,96.218605 
	C98.038910,101.411148 83.426849,98.969925 69.883575,89.852448 
	C67.460754,88.221359 65.639961,85.695992 62.378666,82.413429 
	C66.860138,81.336082 69.632690,80.637711 72.421219,80.010406 
	C74.278664,79.592560 76.158897,79.276054 78.448631,78.943420 
	C84.911148,79.940735 90.953964,80.908813 97.422440,81.904465 
	C99.552467,82.009300 101.256844,82.086563 103.200035,82.398094 
	C104.961342,83.076904 106.483833,83.521461 108.209793,84.218445 
	C109.943573,85.276543 111.473862,86.082230 113.227432,87.049591 
	C113.909317,87.509171 114.367928,87.807076 114.977020,88.336876 
	C115.607155,88.812454 116.086807,89.056145 116.566452,89.299843 
z"/>
<path fill="#8CC33C" opacity="1.000000" stroke="none" 
	d="
M78.028931,78.914185 
	C76.158897,79.276054 74.278664,79.592560 72.421219,80.010406 
	C69.632690,80.637711 66.860138,81.336082 62.378666,82.413429 
	C65.639961,85.695992 67.460754,88.221359 69.883575,89.852448 
	C83.426849,98.969925 98.038910,101.411148 113.715637,96.218605 
	C115.122673,95.752556 116.573608,95.419037 118.374474,95.017349 
	C118.863564,95.460403 118.982323,95.910072 119.206589,96.693443 
	C119.220581,97.772804 119.129082,98.518463 119.094543,99.637436 
	C119.108948,100.762878 119.066383,101.514992 119.086777,102.639236 
	C119.104691,103.175774 119.059647,103.340187 118.949989,103.752022 
	C112.051933,104.999535 105.225319,106.780884 98.383636,106.840843 
	C83.035553,106.975342 69.019524,102.418190 57.553814,91.834785 
	C54.898544,89.383835 53.381134,85.700165 51.340130,82.583740 
	C54.494759,81.020142 57.632133,79.420174 60.812939,77.911781 
	C62.000420,77.348656 63.289253,76.999268 65.168945,76.274124 
	C67.228188,75.284676 68.650352,74.573524 70.401550,73.951416 
	C73.163361,75.665031 75.596146,77.289612 78.028931,78.914185 
z"/>
<path fill="#78B83C" opacity="1.000000" stroke="none" 
	d="
M70.072525,73.862381 
	C68.650352,74.573524 67.228188,75.284676 65.402313,75.994476 
	C63.374191,75.242546 61.749779,74.491966 60.055206,73.391769 
	C62.440212,72.789940 64.895378,72.537750 67.942833,72.153778 
	C68.535118,72.022003 68.968201,72.092674 69.072250,72.334076 
	C69.475044,73.004448 69.773788,73.433418 70.072525,73.862381 
z"/>
<path fill="#FDC240" opacity="1.000000" stroke="none" 
	d="
M68.968201,72.092674 
	C68.968201,72.092674 68.535118,72.022003 68.317352,71.997780 
	C67.815933,71.478195 67.532288,70.982834 67.105423,70.238846 
	C66.958252,69.589516 66.954315,69.188820 67.152237,68.161453 
	C72.490166,67.359703 77.799004,66.274109 82.724518,67.208717 
	C91.590065,68.890938 98.758316,73.740105 102.961212,82.163834 
	C101.256844,82.086563 99.552467,82.009300 97.418640,81.548935 
	C93.335953,73.021721 85.924446,70.898293 78.144203,70.193932 
	C75.241371,69.931137 71.245392,67.935623 68.968201,72.092674 
z"/>
<path fill="#50A43D" opacity="1.000000" stroke="none" 
	d="
M36.995819,71.981888 
	C37.551422,71.502724 38.107025,71.023560 38.831871,70.774162 
	C38.547882,71.640404 38.094650,72.276878 37.320583,72.700760 
	C36.998440,72.319412 36.997128,72.150650 36.995819,71.981888 
z"/>
<path fill="#57A73D" opacity="1.000000" stroke="none" 
	d="
M36.663368,71.986351 
	C36.997128,72.150650 36.998440,72.319412 37.000267,72.741257 
	C36.431194,73.148117 35.861603,73.301895 35.146187,73.229965 
	C35.000347,72.835854 35.000332,72.667427 35.000618,72.246300 
	C35.444252,71.992668 35.887585,71.991737 36.663368,71.986351 
z"/>
<path fill="#57A73D" opacity="1.000000" stroke="none" 
	d="
M43.167446,71.219810 
	C43.468082,70.672470 43.937984,70.356255 44.706120,70.023796 
	C44.448471,70.488678 43.892593,70.969803 43.167446,71.219810 
z"/>
<path fill="#F8993B" opacity="1.000000" stroke="none" 
	d="
M116.933083,89.095795 
	C116.086807,89.056145 115.607155,88.812454 115.287521,88.085030 
	C115.353615,85.523796 115.801491,83.228905 115.070457,81.407043 
	C112.155510,74.142471 107.215965,68.350105 100.791000,63.920254 
	C89.950523,56.446011 77.975258,54.517925 65.171440,57.002007 
	C65.383713,56.532822 65.595985,56.063641 65.831436,55.321686 
	C81.154968,51.934105 95.182083,55.189560 106.536652,65.659592 
	C111.806885,70.519272 114.965271,77.741310 118.704147,84.113556 
	C119.279442,85.094048 117.818787,87.269127 116.933083,89.095795 
z"/>
<path fill="#32943D" opacity="1.000000" stroke="none" 
	d="
M111.964035,136.600830 
	C98.973557,136.338318 85.977272,135.658295 72.564842,134.954559 
	C73.230377,133.975739 74.346275,132.157333 75.388481,132.198639 
	C86.210396,132.627457 97.025681,133.285065 107.827461,134.086151 
	C109.248405,134.191544 110.583420,135.455780 111.964035,136.600830 
z"/>
<path fill="#FCB83F" opacity="1.000000" stroke="none" 
	d="
M103.200035,82.398087 
	C98.758316,73.740105 91.590065,68.890938 82.724518,67.208717 
	C77.799004,66.274109 72.490166,67.359703 67.120331,67.860619 
	C66.612999,67.951553 66.339409,67.716644 65.945129,67.233383 
	C65.591156,66.181534 65.357887,65.378044 65.059998,64.029709 
	C65.048782,63.324200 65.102188,63.163540 65.591782,63.002098 
	C73.723175,62.373844 81.424477,61.867817 88.751091,65.072624 
	C97.548462,68.920776 105.546265,73.635582 108.006317,83.966019 
	C106.483833,83.521461 104.961342,83.076904 103.200035,82.398087 
z"/>
<path fill="#FAAC3D" opacity="1.000000" stroke="none" 
	d="
M108.209793,84.218445 
	C105.546265,73.635582 97.548462,68.920776 88.751091,65.072624 
	C81.424477,61.867817 73.723175,62.373844 65.513657,62.748783 
	C64.947113,62.327568 64.894897,62.158882 64.842682,61.990200 
	C64.904976,61.547024 64.967262,61.103851 65.516464,60.328876 
	C76.611832,57.725414 86.789810,58.856159 96.072205,64.611031 
	C104.477211,69.821938 112.043381,75.908768 113.004158,86.887917 
	C111.473862,86.082230 109.943573,85.276543 108.209793,84.218445 
z"/>
<path fill="#F9A13C" opacity="1.000000" stroke="none" 
	d="
M113.227432,87.049591 
	C112.043381,75.908768 104.477211,69.821938 96.072205,64.611031 
	C86.789810,58.856159 76.611832,57.725414 65.586273,59.999802 
	C65.125259,59.250458 65.081345,58.498383 65.104439,57.374161 
	C77.975258,54.517925 89.950523,56.446011 100.791000,63.920254 
	C107.215965,68.350105 112.155510,74.142471 115.070457,81.407043 
	C115.801491,83.228905 115.353615,85.523796 115.137039,87.853142 
	C114.367928,87.807076 113.909317,87.509171 113.227432,87.049591 
z"/>
<path fill="#13833E" opacity="1.000000" stroke="none" 
	d="
M64.487343,61.994587 
	C64.894897,62.158882 64.947113,62.327568 65.077461,62.749565 
	C65.102188,63.163540 65.048782,63.324200 64.926239,63.729362 
	C64.143898,63.984032 63.430710,63.994198 62.358955,64.007187 
	C61.998669,63.565872 61.996948,63.121738 61.991272,62.345394 
	C62.702213,62.008450 63.417107,62.003712 64.487343,61.994587 
z"/>
<path fill="#FECC41" opacity="1.000000" stroke="none" 
	d="
M69.072250,72.334076 
	C71.245392,67.935623 75.241371,69.931137 78.144203,70.193932 
	C85.924446,70.898293 93.335953,73.021721 96.992981,81.521362 
	C90.953964,80.908813 84.911148,79.940735 78.448631,78.943420 
	C75.596146,77.289612 73.163361,75.665031 70.401550,73.951416 
	C69.773788,73.433418 69.475044,73.004448 69.072250,72.334076 
z"/>
</svg>